<svg id="Camada_1" data-name="Camada 1" xmlns="http://www.w3.org/2000/svg" viewBox="0 0 109.61 109.61"><defs><style>.cls-1{fill:#3aaa35;stroke:#3aaa35;stroke-miterlimit:10;stroke-width:2px;}</style></defs><title>icones-box-home</title><path class="cls-1" d="M88.29,12.27a9.05,9.05,0,0,1,5.46,5.46,1.79,1.79,0,1,0,3.38-1.19,12.52,12.52,0,0,0-7.64-7.65,1.79,1.79,0,0,0-1.2,3.38Zm0,0"/><path class="cls-1" d="M71.88,61.76a1.79,1.79,0,0,0,1.72,0C94,50.63,105,32.31,105,20.73A19.73,19.73,0,0,0,67.4,12.4a1.79,1.79,0,1,0,3.25,1.52,16.15,16.15,0,0,1,30.79,6.81c0,10.53-10.72,27.26-28.7,37.4C54.76,48,44,31.26,44,20.73A16.17,16.17,0,0,1,66.65,5.93a1.79,1.79,0,1,0,1.44-3.28A19.5,19.5,0,0,0,60.19,1,19.75,19.75,0,0,0,40.46,20.73c0,11.58,11,29.9,31.42,41Zm0,0"/><path class="cls-1" d="M24.32,69.15H38.66c2.09,0,5.65,2.67,8.79,5,3.94,3,7.65,5.74,10.94,5.74H69.15a6.28,6.28,0,0,1,4.12,1.27,1.77,1.77,0,0,0,1.26.53,1.8,1.8,0,0,0,1.27-3.06,9.52,9.52,0,0,0-6.65-2.32H58.39c-2.09,0-5.65-2.67-8.79-5-3.93-3-7.65-5.73-10.94-5.73H24.32a1.79,1.79,0,1,0,0,3.58Zm0,0"/><path class="cls-1" d="M10,97a2.69,2.69,0,1,0-2.69,2.69A2.7,2.7,0,0,0,10,97Zm0,0"/><path class="cls-1" d="M107.65,76.33A7.12,7.12,0,0,0,103.29,73a7,7,0,0,0-5.33.65l-20.64,10c-3.21,1.6-6.45,1.6-13.55,1.6-6.94,0-17.53-1.75-17.64-1.76a1.79,1.79,0,0,0-.59,3.53,137.2,137.2,0,0,0,18.23,1.82c7.45,0,11.19,0,15.13-2l20.74-10.1a3.59,3.59,0,0,1,4.9,1.31,3.55,3.55,0,0,1,.36,2.72,3.6,3.6,0,0,1-1.72,2.21L78.93,98.14c-.05,0-5.23,3.3-17,3.3-10.17,0-25.88-8.66-26.1-8.78s-4.05-2-11.56-2a1.79,1.79,0,1,0,0,3.58c6.52,0,9.88,1.57,9.88,1.57C34.88,96.21,50.88,105,62,105c13,0,18.69-3.73,18.88-3.86l24.16-15a7.19,7.19,0,0,0,2.63-9.8Zm0,0"/><path class="cls-1" d="M13.55,58.39H2.79a1.8,1.8,0,0,0,0,3.59H13.55a1.8,1.8,0,0,1,1.8,1.79v39.46a1.8,1.8,0,0,1-1.8,1.79H2.79a1.8,1.8,0,0,0,0,3.59H13.55a5.38,5.38,0,0,0,5.38-5.38V63.77a5.39,5.39,0,0,0-5.38-5.38Zm0,0"/></svg>