<svg id="Camada_1" data-name="Camada 1" xmlns="http://www.w3.org/2000/svg" viewBox="0 0 134.51 99.71"><defs><style>.cls-1{fill:#3aaa35;}</style></defs><title>icones-box-home</title><path class="cls-1" d="M119.32,39.07l-23-23,10-10,23.05,23-10,10Zm-12.09,6.8a10.11,10.11,0,0,0-2.84,5.36A29.4,29.4,0,0,1,96.2,66.91l-1.65,1.65L81,55c.29,0,.59,0,.89,0A10.83,10.83,0,0,0,86,54.19a2.14,2.14,0,1,0-1.62-4c-5.53,2.26-12.16-4-12.9-4.69l0,0-.07-.08h0l-.07-.06h0l-1.81-1.81,2-2a2.15,2.15,0,1,0-3-3L65,42h0l-8.2,8.2a4.32,4.32,0,0,1-7.37-3.06,4.27,4.27,0,0,1,1.27-3L64.8,30a14.34,14.34,0,0,1,2.61-2.06,14.16,14.16,0,0,1,7.46-2.11,14.33,14.33,0,0,1,5.88,1.27,11,11,0,0,0,12.31-2.19l3-3,17.59,17.58-6.41,6.41ZM93.69,77.92a2.91,2.91,0,0,1-4.13,0L68.72,57.08a2.15,2.15,0,1,0-3,3L88.13,82.57A2.93,2.93,0,0,1,84,86.71L80.2,82.92l-.06-.06,0,0L62.71,65.43a2.15,2.15,0,1,0-3,3L77.14,85.93A2.93,2.93,0,0,1,73,90L54,71.1a2.15,2.15,0,0,0-3,3l14,14h0a2.93,2.93,0,0,1-2.07,5,3.41,3.41,0,0,1-.55-.05,7.74,7.74,0,0,0-7.64-8.88H54.6a7.72,7.72,0,0,0-7.72-7.91h-.39A7.72,7.72,0,0,0,37,68.45l-1.54-1.54a29.47,29.47,0,0,1-8.16-15.49,10.82,10.82,0,0,0-3-5.7l-3.79-3.79L42.07,20.39l5.37,5.37a11,11,0,0,0,7.76,3.17A11.39,11.39,0,0,0,59,28.25a10.17,10.17,0,0,1,1.88-.48l-13.3,13.3A8.61,8.61,0,0,0,59.8,53.25l6.68-6.68,1.81,1.81h0l.08.08.07.07h0l.07.06L93.69,73.78a2.92,2.92,0,0,1,0,4.14ZM57.2,94.41a3.42,3.42,0,0,1-4.85,0,3.43,3.43,0,0,1,2.43-5.86,3.38,3.38,0,0,1,2.42,1,3.44,3.44,0,0,1,0,4.86ZM46.88,87.52a3.43,3.43,0,1,1,2.43-1,3.4,3.4,0,0,1-2.43,1ZM36.35,78.41a3.43,3.43,0,1,1,4.85,0,3.41,3.41,0,0,1-4.85,0ZM5.19,31.19l26-26,10,10-26,26-10-10Zm128.69-3.64L107.8,1.46a2.15,2.15,0,0,0-3,0l-13.05,13a2.15,2.15,0,0,0,0,3l1.3,1.3-3,3a6.72,6.72,0,0,1-7.49,1.32A18.52,18.52,0,0,0,66,23.76a14.46,14.46,0,0,0-8.4.45,6.7,6.7,0,0,1-7.1-1.49l-5.37-5.37.64-.64a2.15,2.15,0,0,0,0-3l-13-13a2.15,2.15,0,0,0-3,0l-29,29a2.15,2.15,0,0,0,0,3l13,13a2.15,2.15,0,0,0,3,0l.78-.78,3.79,3.79a6.61,6.61,0,0,1,1.83,3.45A33.78,33.78,0,0,0,32.45,70l.72.71a7.73,7.73,0,0,0,5.6,13h.39a7.73,7.73,0,0,0,7.72,8.12h.17a7.73,7.73,0,0,0,13.19,5.64c.13-.12.24-.25.36-.38a7.07,7.07,0,0,0,2.37.41,7.18,7.18,0,0,0,5.11-2.12,7,7,0,0,0,1.63-2.5l.22.22a7.21,7.21,0,0,0,11.88-2.6,7.22,7.22,0,0,0,11.47-5.84,7.41,7.41,0,0,0-.2-1.71,7.23,7.23,0,0,0,4.44-11.26L99.24,70a33.72,33.72,0,0,0,9.38-18,5.89,5.89,0,0,1,1.64-3.08l6.41-6.41,1.13,1.13a2.15,2.15,0,0,0,3,0l13-13.05a2.12,2.12,0,0,0,.63-1.52,2.09,2.09,0,0,0-.63-1.51Z"/><path class="cls-1" d="M121.48,28.56a2.15,2.15,0,1,1-2.14,2.15,2.15,2.15,0,0,1,2.14-2.15Z"/><path class="cls-1" d="M14.07,30.68a2.15,2.15,0,1,1-2.15,2.15,2.15,2.15,0,0,1,2.15-2.15Z"/></svg>