<svg id="Camada_1" data-name="Camada 1" xmlns="http://www.w3.org/2000/svg" viewBox="0 0 144.74 114.15"><defs><style>.cls-1{fill:#fff;}</style></defs><title>layout-alianca-da-terra</title><path class="cls-1" d="M142.29,109.38H111.41V94.74a21.84,21.84,0,0,0,16.2-11.5,21.38,21.38,0,0,0,11.91-7.62,24.4,24.4,0,0,0,5.22-15.19A23.77,23.77,0,0,0,133.56,40c-.71-14.14-11.61-25.42-24.9-25.42a23.49,23.49,0,0,0-12,3.29A2.38,2.38,0,1,0,99.13,22a18.77,18.77,0,0,1,9.53-2.63c11.1,0,20.15,9.91,20.17,22.1a2.39,2.39,0,0,0,1.31,2.12c6,3,9.83,9.64,9.83,16.86,0,9.11-6.17,17-14.35,18.34a2.41,2.41,0,0,0-1.76,1.32,17.35,17.35,0,0,1-12.45,9.83V68.81L123.15,58a2.39,2.39,0,1,0-3.23-3.51l-8.51,7.82V46.41a2.39,2.39,0,0,0-4.77,0V75.28l-8.5-7.83A2.39,2.39,0,0,0,94.91,71l11.73,10.79V90A17.27,17.27,0,0,1,93.4,80a2.38,2.38,0,0,0-1.66-1.31C83.83,77,78.08,69.3,78.08,60.43a18.76,18.76,0,0,1,9.21-16.52A2.39,2.39,0,0,0,88.5,41.8v-.31a23.3,23.3,0,0,1,4.24-13.58,2.39,2.39,0,0,0-3.9-2.75,28,28,0,0,0-5.1,15.32,23.71,23.71,0,0,0-10.43,20c0,10.68,6.79,20,16.3,22.6a21.8,21.8,0,0,0,17,11.8v14.56h-1.51A15.08,15.08,0,0,0,94.57,95.88a14.11,14.11,0,0,0-9.74-7.77,14.09,14.09,0,0,0-26-3.93A14.57,14.57,0,0,0,47,91,12,12,0,0,0,36.68,83.2V76.93a21,21,0,0,0,15.47-11A20.62,20.62,0,0,0,63.57,58.6a23.47,23.47,0,0,0,5-14.61,22.86,22.86,0,0,0-10.71-19.6C57.17,10.81,46.7,0,34,0A22.68,22.68,0,0,0,20.34,4.56a2.39,2.39,0,0,0,2.85,3.83A17.9,17.9,0,0,1,34,4.77c10.57,0,19.18,9.44,19.2,21.05a2.39,2.39,0,0,0,1.31,2.12c5.69,2.88,9.36,9.18,9.36,16.05,0,8.67-5.87,16.18-13.65,17.46a2.38,2.38,0,0,0-1.76,1.32A16.54,16.54,0,0,1,36.68,72.1v-20l11.2-10.3a2.39,2.39,0,1,0-3.23-3.51l-8,7.33v-15a2.39,2.39,0,1,0-4.77,0V58l-8-7.34a2.38,2.38,0,0,0-3.22,3.51l11.2,10.31v7.75a16.44,16.44,0,0,1-12.49-9.57,2.36,2.36,0,0,0-1.66-1.31c-7.53-1.6-13-8.89-13-17.34a17.89,17.89,0,0,1,8.76-15.73,2.39,2.39,0,0,0,1.22-2.11c0-.06,0-.12,0-.19v-.1a22.75,22.75,0,0,1,1.61-8.48,20.55,20.55,0,0,1,1.1-2.32,2.39,2.39,0,1,0-4.19-2.28,26.08,26.08,0,0,0-1.33,2.83A27.1,27.1,0,0,0,10,24.84,22.76,22.76,0,0,0,0,44c0,10.26,6.51,19.2,15.63,21.72A21,21,0,0,0,31.91,77v6.82A11.81,11.81,0,0,0,25.63,89,12.18,12.18,0,0,0,14.25,99.22a15.34,15.34,0,0,0-8.61,10.16H2.38a2.39,2.39,0,0,0,0,4.77H142.29a2.39,2.39,0,0,0,0-4.77ZM17.22,103.19a2.38,2.38,0,0,0,1.65-2.2,7.44,7.44,0,0,1,7.48-7.26c.16,0,.34,0,.56,0a2.4,2.4,0,0,0,2.38-1.46,7.1,7.1,0,0,1,13.62,2.19,2.4,2.4,0,0,0,2.2,2.19,7,7,0,0,1,1.87.42h0l.33.13.07,0,.29.14.1,0,.4.22.22.13.15.1.23.17.13.1.27.22.08.06a8.36,8.36,0,0,1,.66.67l.06.07c.08.1.17.2.25.31l0,.06a6.75,6.75,0,0,1,.51.8l.06.11.15.31.06.13c.06.14.12.28.17.42h0A2.37,2.37,0,0,0,53,102.85l.63.17.2.07.41.14.22.1.36.16.23.12a3.37,3.37,0,0,1,.32.19l.23.14.3.21.21.15.29.24.19.17a3.57,3.57,0,0,1,.28.27l.17.16.3.34a.69.69,0,0,0,.11.13c.13.16.25.33.37.5a.41.41,0,0,0,.07.11c.09.14.18.28.26.42l.1.2a3,3,0,0,1,.18.36c0,.07.07.15.11.23s.09.23.14.35l.09.25c0,.11.07.23.11.35a2.5,2.5,0,0,0,.07.26c0,.12.05.24.08.36a2,2,0,0,0,0,.26s0,.08,0,.12H10.64A10.58,10.58,0,0,1,17.22,103.19Zm46.64,6.19s0,0,0-.06c0-.29-.06-.57-.11-.85v0c0-.28-.1-.57-.17-.85v0c-.07-.28-.15-.55-.23-.82l0-.09c-.09-.26-.18-.51-.28-.77a1.17,1.17,0,0,1,0-.11c-.1-.24-.21-.49-.33-.73l-.05-.11c-.12-.24-.25-.47-.38-.7l-.06-.1c-.14-.24-.28-.46-.43-.69l-.06-.08c-.16-.22-.32-.45-.5-.66l0,0c-.18-.23-.37-.45-.56-.66h0c-.19-.21-.39-.41-.6-.61a.12.12,0,0,1-.05,0c-.2-.19-.41-.37-.62-.54l-.09-.07c-.2-.17-.42-.33-.64-.49l-.1-.07-.67-.43-.11-.07L57,99.25l-.1,0c-.25-.12-.5-.24-.76-.34l-.07,0c-.27-.11-.54-.21-.82-.3h0a.3.3,0,0,1,0-.08c-.1-.19-.2-.38-.31-.57l-.17-.28a3,3,0,0,0-.21-.33,3.53,3.53,0,0,0-.21-.32l-.19-.27-.25-.33-.16-.18a8.47,8.47,0,0,0-.63-.7l-.11-.12L52.59,95l-.2-.18c-.1-.09-.21-.19-.33-.28l-.24-.19-.32-.24-.45-.31-.13-.09a9.81,9.81,0,0,1,8.44-4.8l.73,0a2.39,2.39,0,0,0,2.38-1.45,9.32,9.32,0,0,1,17.89,2.87,2.38,2.38,0,0,0,2.19,2.19,9.32,9.32,0,0,1,8,6.12,2.39,2.39,0,0,0,1.74,1.52,10.3,10.3,0,0,1,8,9.17H63.86Z"/></svg>