<svg id="Camada_1" data-name="Camada 1" xmlns="http://www.w3.org/2000/svg" viewBox="0 0 112.39 112.39"><defs><style>.cls-1{fill:#fff;}</style></defs><title>layout-alianca-da-terra</title><path class="cls-1" d="M112.39,53.56a24.61,24.61,0,0,1-8,18.23,4.39,4.39,0,0,1-6-6.44,16,16,0,0,0,5.19-11.79A16.23,16.23,0,0,0,95,39.2a4.39,4.39,0,0,1-2.33-3.88v-5.4a21.14,21.14,0,0,0-42-3.27A4.39,4.39,0,0,1,43,28.89,10.75,10.75,0,0,0,24.15,36v7.9a4.39,4.39,0,0,1-4.39,4.39h0A10.87,10.87,0,0,0,8.78,59.05c0,.35,0,.71.05,1.06a4.39,4.39,0,0,1-8.74.82C0,60.31,0,59.68,0,59.05A19.62,19.62,0,0,1,15.37,40V36A19.52,19.52,0,0,1,43.78,18.6a29.93,29.93,0,0,1,57.63,11.32v2.93A25,25,0,0,1,112.39,53.56Zm-37.1,28.1V96.58a15.81,15.81,0,1,1-31.61,0V81.66a15.81,15.81,0,1,1,31.61,0Zm-8.78,0a7,7,0,1,0-14.05,0V96.58a7,7,0,1,0,14.05,0ZM22,74.63a6.87,6.87,0,0,1,6.89,5.47,4.39,4.39,0,1,0,8.61-1.71,15.48,15.48,0,0,0-5.46-9,16,16,0,0,0-10-3.51A15.82,15.82,0,0,0,6.15,81.66V96.58a15.8,15.8,0,0,0,31.18,3.65,4.39,4.39,0,1,0-8.54-2,7,7,0,0,1-13.86-1.63V81.66A7,7,0,0,1,22,74.63Zm77.93,29H96.73c6.41-7.27,7.25-10.86,7.25-13.17a11,11,0,0,0-11-11h-.16a11,11,0,0,0-11,11,4.39,4.39,0,0,0,8.78,0,2.22,2.22,0,0,1,2.19-2.2H93a2.22,2.22,0,0,1,2.19,2.15c0,.23-.58,2.49-5.75,8.18-3.06,3.38-6.1,6.15-6.13,6.17a4.39,4.39,0,0,0,3,7.65H99.88a4.39,4.39,0,0,0,0-8.78Z"/></svg>