<svg id="Camada_1" data-name="Camada 1" xmlns="http://www.w3.org/2000/svg" viewBox="0 0 121.37 121.37"><defs><style>.cls-1{fill:#fff;}</style></defs><title>layout-alianca-da-terra</title><path class="cls-1" d="M37.7,76.74l-14-15.52a7.56,7.56,0,0,0-7.55-2.32V32.36A8.09,8.09,0,0,0,0,32.36V70.65A18.26,18.26,0,0,0,2.29,79.5l17.94,32.28v7.57a2,2,0,0,0,2,2H50.57a2,2,0,0,0,2-2V101.14h-.05A30,30,0,0,0,37.7,76.74Zm10.85,40.58H24.27v-6.07a2,2,0,0,0-.25-1L5.83,77.53a14.16,14.16,0,0,1-1.78-6.88V32.36a4,4,0,0,1,8.09,0v29a7.68,7.68,0,0,0,.13,10.18L28.85,89.81l3-2.72L15.27,68.86a3.68,3.68,0,0,1,5.32-5.08l.13.14L34.91,79.69a3,3,0,0,0,.6.46,25.92,25.92,0,0,1,13,22.46Z"/><path class="cls-1" d="M113.28,24.27a8.09,8.09,0,0,0-8.09,8.09V58.9a7.53,7.53,0,0,0-7.55,2.32l-14,15.52a30,30,0,0,0-14.85,24.4h0v18.21a2,2,0,0,0,2,2H99.12a2,2,0,0,0,2-2v-7.58l17.71-32.1a18.19,18.19,0,0,0,2.52-9.23V32.36A8.09,8.09,0,0,0,113.28,24.27Zm4,46.17a14.17,14.17,0,0,1-2,7.23l-18,32.61a2.06,2.06,0,0,0-.25,1v6.07H72.82V102.61A26,26,0,0,1,86,80.1a1.76,1.76,0,0,0,.5-.4l14.19-15.78a3.68,3.68,0,0,1,5.46,4.93L89.53,87.09l3,2.72L109.1,71.58a7.67,7.67,0,0,0,.13-10.18v-29a4,4,0,0,1,8.09,0Z"/><path class="cls-1" d="M87,52.59a2,2,0,0,0-2-2h-4a22.23,22.23,0,0,0-18.2,9.51V46.52h2A22.27,22.27,0,0,0,87,24.27a2,2,0,0,0-2-2h-4a22.23,22.23,0,0,0-18.2,9.51V18.21h2A16.2,16.2,0,0,0,80.91,2a2,2,0,0,0-2-2h-4A16.18,16.18,0,0,0,60.68,8.37,16.16,16.16,0,0,0,46.52,0h-4a2,2,0,0,0-2,2A16.2,16.2,0,0,0,56.64,18.21h2V31.76a22.23,22.23,0,0,0-18.2-9.51H36.41a2,2,0,0,0-2,2A22.27,22.27,0,0,0,56.64,46.52h2V60.08a22.23,22.23,0,0,0-18.2-9.51H36.41a2,2,0,0,0-2,2A22.27,22.27,0,0,0,56.64,74.84h2V91h4.05V74.84h2A22.27,22.27,0,0,0,87,52.59ZM80.91,26.3h1.91A18.22,18.22,0,0,1,64.73,42.48H62.82A18.22,18.22,0,0,1,80.91,26.3ZM74.84,4.05H76.7a12.17,12.17,0,0,1-12,10.11H62.87A12.15,12.15,0,0,1,74.84,4.05ZM56.64,14.16a12.16,12.16,0,0,1-12-10.11h1.85a12.14,12.14,0,0,1,12,10.11Zm0,28.32A18.24,18.24,0,0,1,38.54,26.3h1.92A18.23,18.23,0,0,1,58.55,42.48Zm0,28.32a18.25,18.25,0,0,1-18.1-16.18h1.92A18.23,18.23,0,0,1,58.55,70.8ZM80.91,54.62h1.91A18.23,18.23,0,0,1,64.73,70.8H62.82A18.22,18.22,0,0,1,80.91,54.62Z"/></svg>