<svg id="Camada_1" data-name="Camada 1" xmlns="http://www.w3.org/2000/svg" viewBox="0 0 147.97 132.71"><defs><style>.cls-1{fill:#fff;}</style></defs><title>layout-alianca-da-terra</title><path class="cls-1" d="M48.13,132.15a30.17,30.17,0,0,1-9.74-1.92L9.66,119.43A14.9,14.9,0,0,1,0,105l2.88-94.7A10.63,10.63,0,0,1,17.26.69l25.6,9.63a27.91,27.91,0,0,0,18,.55L90,1.88h0a30.5,30.5,0,0,1,19.59.6l28.72,10.81A14.91,14.91,0,0,1,148,27.7l-2.89,94.69A10.63,10.63,0,0,1,130.71,132l-25.6-9.63a27.91,27.91,0,0,0-18-.55l-29.17,9A30.47,30.47,0,0,1,48.13,132.15ZM13.74,2.53A8.12,8.12,0,0,0,5.41,10.4L2.53,105.09a12.38,12.38,0,0,0,8,12l28.73,10.81a27.9,27.9,0,0,0,18,.54l29.17-9A30.44,30.44,0,0,1,106,120l25.6,9.63a8.1,8.1,0,0,0,11-7.34l2.89-94.7a12.4,12.4,0,0,0-8-12L108.7,4.84a27.91,27.91,0,0,0-18-.55l-29.18,9A30.44,30.44,0,0,1,42,12.68L16.38,3.05A8.2,8.2,0,0,0,13.74,2.53Z"/><path class="cls-1" d="M47.59,132.14h0a30.4,30.4,0,0,1-9.17-1.89L9.66,119.44A14.9,14.9,0,0,1,0,105l2.88-94.7A10.62,10.62,0,0,1,17.26.71l25.6,9.63a27.88,27.88,0,0,0,8.41,1.73,1.26,1.26,0,0,1-.1,2.52h0A30.1,30.1,0,0,1,42,12.69L16.38,3.06a8.13,8.13,0,0,0-11,7.35L2.52,105.1a12.41,12.41,0,0,0,8,12l28.73,10.81a27.48,27.48,0,0,0,7.13,1.64l2-66.85a1.26,1.26,0,1,1,2.51.08l-2.07,68.16a1.26,1.26,0,0,1-1.3,1.22Z"/><path class="cls-1" d="M134.17,132.7a11,11,0,0,1-3.46-.69l-25.59-9.63a27.89,27.89,0,0,0-8.42-1.74,1.26,1.26,0,1,1,.13-2.51A30.33,30.33,0,0,1,106,120l25.6,9.63a8.1,8.1,0,0,0,11-7.34l2.89-94.7a12.4,12.4,0,0,0-8-12L108.7,4.83a27.91,27.91,0,0,0-7.13-1.65L99.71,64a1.26,1.26,0,1,1-2.51-.08L99.09,1.8a1.29,1.29,0,0,1,.4-.89,1.21,1.21,0,0,1,.92-.33,30.1,30.1,0,0,1,9.18,1.89l28.72,10.81A14.91,14.91,0,0,1,148,27.69l-2.89,94.69a10.66,10.66,0,0,1-10.91,10.32Z"/><path class="cls-1" d="M48.49,120.66a18.92,18.92,0,0,1-6.05-1.2l-25.58-9.72a8.13,8.13,0,0,1-5.24-7.85L14,23.72a8.46,8.46,0,0,1,11.43-7.66l13.38,5a39.51,39.51,0,0,0,12.63,2.5,39.17,39.17,0,0,0,12.77-1.73l29.18-9a18.84,18.84,0,0,1,12.14.37l25.54,9.48a8.13,8.13,0,0,1,5.29,7.87L134,109a8.45,8.45,0,0,1-11.42,7.65l-13.38-5a39.32,39.32,0,0,0-25.41-.78l-29.17,9A18.81,18.81,0,0,1,48.49,120.66ZM22.61,18a6,6,0,0,0-6.09,5.75L14.14,102a5.6,5.6,0,0,0,3.61,5.41l25.58,9.72a16.28,16.28,0,0,0,10.52.32l29.17-9a41.76,41.76,0,0,1,27,.82l13.38,5a5.92,5.92,0,0,0,8-5.37l2.4-78.4a5.6,5.6,0,0,0-3.66-5.42l-25.54-9.49a16.35,16.35,0,0,0-10.52-.32L65,24.28a41.61,41.61,0,0,1-13.58,1.83,41.56,41.56,0,0,1-13.45-2.66l-13.38-5A5.91,5.91,0,0,0,22.61,18Z"/><path class="cls-1" d="M125.29,117.2a8.51,8.51,0,0,1-2.74-.55l-13.38-5a39,39,0,0,0-12.11-2.48,1.26,1.26,0,0,1,.11-2.52,41.82,41.82,0,0,1,12.89,2.64l13.38,5a5.92,5.92,0,0,0,8-5.37l2.4-78.4a5.6,5.6,0,0,0-3.66-5.42l-25.54-9.49a16.31,16.31,0,0,0-3.43-.88L99.47,72.11A1.26,1.26,0,1,1,97,72l1.79-58.73a1.28,1.28,0,0,1,.41-.9,1.25,1.25,0,0,1,.93-.32,18.81,18.81,0,0,1,5.45,1.16l25.54,9.48a8.13,8.13,0,0,1,5.29,7.87L134,109a8.47,8.47,0,0,1-8.68,8.2Z"/><path class="cls-1" d="M47.94,120.63h0a19,19,0,0,1-5.46-1.17l-25.58-9.72a8.13,8.13,0,0,1-5.24-7.85L14,23.72a8.46,8.46,0,0,1,11.43-7.66l13.38,5a39.47,39.47,0,0,0,12.11,2.48,1.26,1.26,0,0,1-.1,2.51h0a41.53,41.53,0,0,1-12.88-2.64l-13.38-5a5.94,5.94,0,0,0-8,5.37L14.14,102a5.6,5.6,0,0,0,3.61,5.41l25.58,9.72a15.72,15.72,0,0,0,3.43.88l1.46-47.73a1.26,1.26,0,1,1,2.51.08l-1.49,49.08a1.26,1.26,0,0,1-.41.89A1.28,1.28,0,0,1,47.94,120.63Z"/><path class="cls-1" d="M13.51,81.31a1.57,1.57,0,0,1-.43-.09A1.26,1.26,0,0,1,12.29,80L14,23.72a8.46,8.46,0,0,1,11.43-7.66l13.38,5a39.51,39.51,0,0,0,12.63,2.5,39.17,39.17,0,0,0,12.77-1.73l5.67-1.74a1.26,1.26,0,0,1,1.61,1c1.44,10.08-1.18,18.8-7.56,25.24-8,8.11-14.43,8.47-20.06,8.8-5.47.31-9.79.56-14.89,7.6-4.38,6-9.25,12.12-14.49,18.09A1.26,1.26,0,0,1,13.51,81.31ZM22.61,18a6,6,0,0,0-6.09,5.75L14.91,76.54c4.31-5,8.35-10.15,12-15.23,5.81-8,11.14-8.32,16.78-8.64,5.44-.31,11.06-.63,18.42-8.06,5.58-5.62,8-12.9,7-21.63L65,24.28a41.61,41.61,0,0,1-13.58,1.83,41.56,41.56,0,0,1-13.45-2.66l-13.38-5A5.91,5.91,0,0,0,22.61,18Z"/><path class="cls-1" d="M13.51,81.29A1.23,1.23,0,0,1,12.29,80L14,23.72a8.46,8.46,0,0,1,11.43-7.66l13.38,5a39.47,39.47,0,0,0,12.11,2.48,1.26,1.26,0,0,1-.1,2.51h0a41.47,41.47,0,0,1-12.88-2.64l-13.38-5a5.94,5.94,0,0,0-8,5.37L14.91,76.53c4.31-5,8.35-10.15,12-15.23,5.8-8,11.13-8.31,16.78-8.63a38,38,0,0,0,6-.67,1.26,1.26,0,1,1,.53,2.46,39.44,39.44,0,0,1-6.4.72c-5.46.31-9.78.56-14.88,7.6-4.38,6-9.25,12.12-14.49,18.09A1.23,1.23,0,0,1,13.51,81.29Z"/><path class="cls-1" d="M48.48,120.66a18.92,18.92,0,0,1-6-1.2L26,113.21a1.26,1.26,0,0,1-.76-1.51C28,101.63,32.81,94.17,39.51,89.53c3.29-2.29,6.06-4.29,8.51-6.07,10.11-7.31,14.72-10.65,25.71-10.93h0c10-.25,25.4,18.35,34.47,36.48a1.28,1.28,0,0,1-.16,1.38,1.27,1.27,0,0,1-1.33.39,39.4,39.4,0,0,0-22.95.06l-29.17,9A18.87,18.87,0,0,1,48.48,120.66ZM28,111.27l15.36,5.84a16.34,16.34,0,0,0,10.52.31l29.17-9A41.65,41.65,0,0,1,96.6,106.6a42.54,42.54,0,0,1,8.05,1c-9.6-18.09-23.39-32.78-30.86-32.58h0c-10.2.25-14,3-24.29,10.46C47,87.28,44.26,89.3,40.94,91.6,35,95.73,30.62,102.34,28,111.27Z"/><path class="cls-1" d="M107,110.84a1.28,1.28,0,0,1-.32-.06,39.48,39.48,0,0,0-9.65-1.64,1.26,1.26,0,0,1,.11-2.52,41.79,41.79,0,0,1,7.48,1,121.64,121.64,0,0,0-8.13-13.17,1.26,1.26,0,1,1,2-1.46,124.44,124.44,0,0,1,9.63,16,1.26,1.26,0,0,1-1.17,1.83Z"/><path class="cls-1" d="M47.94,120.63h0a18.93,18.93,0,0,1-5.46-1.16h0L26,113.22a1.26,1.26,0,0,1-.76-1.51C28,101.64,32.81,94.17,39.51,89.53c3.23-2.24,6-4.22,8.36-6l.44-.31a1.26,1.26,0,0,1,1.33-.1,1.28,1.28,0,0,1,.67,1.15l-1.07,35.1a1.26,1.26,0,0,1-.41.89A1.28,1.28,0,0,1,47.94,120.63Zm-4.61-3.51a16,16,0,0,0,3.43.86l1-31.18c-2,1.45-4.23,3-6.76,4.8-6,4.13-10.33,10.75-13,19.68Z"/><path class="cls-1" d="M134.38,54.32h-.09a57,57,0,0,1-21.39-6.16c-12.46-6.69-19.83-21.4-23.81-32.57a1.31,1.31,0,0,1,.06-1,1.29,1.29,0,0,1,.76-.63l3.48-1.08a18.84,18.84,0,0,1,12.14.37l25.54,9.48a8.13,8.13,0,0,1,5.29,7.87l-.68,22.5a1.26,1.26,0,0,1-1.3,1.22ZM91.91,16c3.93,10.57,10.87,23.89,22.18,30a53.75,53.75,0,0,0,19.11,5.73l.65-21.14a5.6,5.6,0,0,0-3.66-5.42h0l-25.54-9.48a16.35,16.35,0,0,0-10.52-.32Z"/><path class="cls-1" d="M134.38,54.32h-.09a57,57,0,0,1-21.39-6.16c-5.39-2.89-10.28-7.54-14.56-13.82a1.25,1.25,0,0,1-.22-.75l.62-20.27a1.28,1.28,0,0,1,.41-.9,1.25,1.25,0,0,1,.93-.32,18.71,18.71,0,0,1,5.45,1.15l25.54,9.48a8.13,8.13,0,0,1,5.29,7.87l-.68,22.51a1.26,1.26,0,0,1-1.3,1.22ZM100.65,33.25c4,5.77,8.51,10,13.44,12.68a53.75,53.75,0,0,0,19.11,5.73l.65-21.15a5.61,5.61,0,0,0-3.66-5.43h0L104.65,15.6a16.59,16.59,0,0,0-3.43-.87Z"/><path class="cls-1" d="M84.58,64.79a8.49,8.49,0,1,1,8.75-8.22A8.5,8.5,0,0,1,84.58,64.79ZM85,50.34a6,6,0,1,0,5.79,6.15A6,6,0,0,0,85,50.34Z"/></svg>