<?xml version="1.0" standalone="no"?>
<!DOCTYPE svg PUBLIC "-//W3C//DTD SVG 20010904//EN"
 "http://www.w3.org/TR/2001/REC-SVG-20010904/DTD/svg10.dtd">
<svg version="1.0" xmlns="http://www.w3.org/2000/svg"
 width="170.000000pt" height="170.000000pt" viewBox="0 0 170.000000 170.000000"
 preserveAspectRatio="xMidYMid meet">
<metadata>
Created by potrace 1.11, written by Peter Selinger 2001-2013
</metadata>
<g transform="translate(0.000000,170.000000) scale(0.100000,-0.100000)"
fill="#000000" stroke="none">
<path d="M691 1684 c-144 -39 -290 -160 -353 -294 -50 -104 -62 -164 -56 -279
24 -462 559 -693 920 -398 65 54 135 155 168 242 28 75 37 210 21 297 -39 201
-208 381 -406 433 -74 19 -222 19 -294 -1z m251 -168 c118 -28 210 -105 265
-222 25 -52 28 -71 28 -159 0 -88 -3 -107 -27 -157 -37 -80 -107 -152 -187
-191 -61 -30 -72 -32 -171 -32 -93 0 -112 3 -162 27 -79 37 -152 108 -190 185
-76 156 -34 362 96 467 105 85 220 112 348 82z"/>
<path d="M1482 899 c-13 -5 -29 -25 -38 -46 -66 -163 -149 -255 -295 -327 -58
-28 -125 -52 -174 -62 -44 -9 -91 -22 -105 -29 -21 -11 -30 -11 -50 0 -14 7
-61 20 -105 28 -188 38 -364 164 -433 312 -58 125 -55 120 -93 123 -74 6 -80
-52 -18 -178 59 -120 177 -236 304 -301 81 -41 117 -53 263 -89 l42 -11 0
-127 c0 -148 9 -172 65 -172 56 0 65 24 65 172 l0 128 28 6 c199 43 329 105
440 209 81 77 128 145 169 245 21 53 22 64 11 87 -16 31 -45 44 -76 32z"/>
</g>
</svg>
